<svg width="21" height="17" viewBox="0 0 21 17" fill="none" xmlns="http://www.w3.org/2000/svg">
<path d="M20.5074 5.21875H18.0518L17.3693 3.5125C16.6679 1.75826 14.9941 0.625 13.1045 0.625H7.89551C6.00633 0.625 4.33207 1.75826 3.6303 3.5125L2.9478 5.21875H0.492601C0.172269 5.21875 -0.0627505 5.5198 0.0151792 5.83029L0.261273 6.81467C0.315824 7.03369 0.512699 7.1875 0.738695 7.1875H1.56188C1.01104 7.66861 0.656253 8.36793 0.656253 9.15625V11.125C0.656253 11.7862 0.90891 12.3829 1.3125 12.8448V15.0625C1.3125 15.7872 1.90026 16.375 2.625 16.375H3.9375C4.66225 16.375 5.25 15.7872 5.25 15.0625V13.75H15.75V15.0625C15.75 15.7872 16.3378 16.375 17.0625 16.375H18.375C19.0998 16.375 19.6875 15.7872 19.6875 15.0625V12.8448C20.0911 12.3834 20.3438 11.7866 20.3438 11.125V9.15625C20.3438 8.36793 19.989 7.66861 19.4385 7.1875H20.2617C20.4877 7.1875 20.6846 7.03369 20.7391 6.81467L20.9852 5.83029C21.0628 5.5198 20.8277 5.21875 20.5074 5.21875ZM6.06744 4.48744C6.36645 3.74014 7.09037 3.25 7.89551 3.25H13.1045C13.9096 3.25 14.6336 3.74014 14.9326 4.48744L15.75 6.53125H5.25L6.06744 4.48744ZM3.9375 11.1168C3.15 11.1168 2.625 10.5934 2.625 9.8084C2.625 9.02336 3.15 8.5 3.9375 8.5C4.725 8.5 5.90625 9.67756 5.90625 10.4626C5.90625 11.2476 4.725 11.1168 3.9375 11.1168ZM17.0625 11.1168C16.275 11.1168 15.0938 11.2476 15.0938 10.4626C15.0938 9.67756 16.275 8.5 17.0625 8.5C17.85 8.5 18.375 9.02336 18.375 9.8084C18.375 10.5934 17.85 11.1168 17.0625 11.1168Z" fill="#343A40"/>
</svg>
